<?xml version="1.0" encoding="iso-8859-1"?>
<!-- Generator: Adobe Illustrator 22.1.0, SVG Export Plug-In . SVG Version: 6.00 Build 0)  -->
<svg version="1.1" id="Layer_1" xmlns="http://www.w3.org/2000/svg" xmlns:xlink="http://www.w3.org/1999/xlink" x="0px" y="0px"
	 width="500px" height="500px" viewBox="0 0 500 500" enable-background="new 0 0 500 500" xml:space="preserve">
<g>
	<path d="M187.14,442.933c-1.477,3.183-2.549,5.653-3.752,8.058c-4.387,8.774-11.02,14.965-20.504,17.992
		c-9.796,3.127-19.777,5.387-29.953,6.804c-0.852,0.119-1.799-0.006-2.62-0.27c-0.464-0.15-0.818-0.782-1.107-1.265
		c-0.11-0.185,0.032-0.604,0.179-0.842c0.308-0.498,0.612-1.06,1.064-1.399c5.171-3.879,9.111-8.881,12.289-14.378
		c5.666-9.799,14.42-15.166,24.887-18.266c2.523-0.747,5.224-0.96,7.84-2.921c-3.312-2.29-6.297-4.298-9.22-6.393
		c-2.7-1.935-5.348-3.943-7.992-5.954c-2.863-2.178-5.474-4.7-8.77-6.72c-1.317,1.044-2.552,1.887-3.628,2.9
		c-2.859,2.691-5.586,5.523-8.479,8.175c-5.475,5.018-11.773,8.224-19.286,9.125c-6.014,0.721-12.009,1.252-18.066,1.108
		c-7.55-0.18-15.104-0.245-22.651-0.498c-1.76-0.059-3.507-0.653-5.25-1.045c-0.644-0.145-1.024-1.819-0.582-2.291
		c0.203-0.217,0.287-0.589,0.521-0.726c5.898-3.438,9.981-8.637,13.952-14.019c4.612-6.251,10.404-10.777,18.353-12.268
		c4.661-0.874,9.196-2.418,14.269-3.791c-2.048-2.449-4.455-3.73-6.569-5.352c-2.395-1.839-4.721-3.773-7.182-5.518
		c-0.661-0.469-1.737-0.643-2.562-0.527c-1.476,0.208-2.912,0.72-4.355,1.139c-6.039,1.754-11.933,1.033-17.764-0.986
		c-1.708-0.591-3.451-1.081-5.156-1.68c-1.215-0.427-2.157-2.061-1.56-2.771c0.527-0.626,1.364-1.449,2.035-1.423
		c5.848,0.229,11.202-2.264,16.873-2.963c0.266-0.033,0.497-0.889,0.612-1.392c0.055-0.241-0.144-0.596-0.323-0.825
		c-0.742-0.949-1.509-1.879-2.288-2.797c-3.697-4.357-7.401-8.709-11.275-13.265c-1.566,0.521-2.989,0.905-4.341,1.46
		c-7.424,3.05-14.854,2.66-21.966-0.637c-6.006-2.784-11.712-6.218-17.523-9.416c-0.474-0.261-0.862-0.88-1.041-1.416
		c-0.171-0.511-0.206-1.246,0.051-1.67c0.251-0.415,1.046-0.892,1.428-0.775c3.716,1.141,7.282,2.694,11.213,3.222
		c2.721,0.366,5.407,0.774,8.093,0.211c5.379-1.127,10.751-1.032,16.152-0.288c0.22,0.03,0.488-0.288,0.807-0.49
		c-0.294-2.783-2.24-4.815-3.45-7.182c-0.683-1.335-1.435-2.68-2.4-3.812c-0.833-0.978-2.052-0.765-3.32-0.543
		c-10.211,1.788-18.96-1.916-27.149-7.501c-0.368-0.251-0.404-1.047-0.516-1.605c-0.16-0.797,0.788-1.469,1.855-1.417
		c0.302,0.015,0.61-0.018,0.905,0.032c6.636,1.111,13.268,0.037,19.9-0.043c1.544-0.018,2.416-1.896,1.573-3.276
		c-0.47-0.769-0.965-1.533-1.535-2.229c-0.375-0.458-0.858-0.867-1.369-1.17c-6.831-4.055-12.377-9.624-17.937-15.178
		c-1.068-1.067-2.084-2.235-3.318-3.072c-1.209-0.82-2.623-1.682-4.019-1.826c-8.754-0.901-15.204-5.556-20.163-12.406
		c-3.926-5.423-6.424-11.597-7.953-18.121c-0.188-0.801,0.15-1.74,0.307-2.604c0.146-0.808,1.611-1.267,2.216-0.741
		c0.224,0.195,0.563,0.284,0.732,0.509c4.611,6.125,10.481,10.768,16.931,14.828c4.648,2.927,8.477,6.819,11.259,11.608
		c4.33,7.453,10.704,13.029,17.028,18.644c0.52,0.461,1.545,0.353,2.336,0.509c0.067-0.854,0.39-1.784,0.162-2.55
		c-6.209-20.864-6.761-23.185-9.284-40.08c-0.686-0.476-1.56-1.342-2.613-1.772c-6.601-2.693-11.685-7.424-16.655-12.291
		c-3.741-3.663-5.962-8.348-8.062-13.025c-2.224-4.954-4.132-10.059-4.935-15.476c-0.12-0.808,0.245-1.773,0.644-2.529
		c0.152-0.289,1.309-0.46,1.525-0.23c0.801,0.851,1.556,1.819,2.05,2.874c2.235,4.771,5.684,8.511,9.736,11.759
		c1.885,1.511,3.758,3.044,5.713,4.462c4,2.902,6.545,7.059,9.54,10.833c0.145,0.183,0.593,0.354,0.74,0.266
		c0.43-0.259,1.106-0.646,1.113-0.994c0.207-10.279,1.059-20.501,2.73-30.644c0.321-1.949-0.331-3.587-1.032-5.228
		c-2.65-6.208-4.022-12.669-3.699-19.406c0.172-3.599,0.505-7.23,1.228-10.753c1.272-6.202,2.852-12.343,4.418-18.48
		c0.282-1.105,1.032-2.136,1.747-3.061c0.274-0.355,1.094-0.511,1.592-0.407c0.492,0.102,1.247,0.616,1.28,1.002
		c0.525,6.09,2.517,11.737,4.966,17.27c2.842,6.419,2.27,13.015,0.532,19.522c-1.086,4.065-2.457,8.109-4.207,11.931
		c-3.221,7.033-4.298,14.384-4.195,22.002c0.004,0.284,0.254,0.818,0.3,0.809c0.505-0.106,1.29-0.159,1.44-0.485
		c5.067-11,14.546-17.466,24.252-23.702c0.241-0.155,0.587-0.306,0.837-0.251c0.547,0.121,1.214,0.24,1.552,0.613
		c0.346,0.383,0.679,1.297,0.471,1.586c-3.577,4.965-5.375,10.768-7.789,16.279c-2.366,5.401-6.077,9.669-10.835,13.104
		c-2.688,1.941-5.281,4.013-7.914,6.03c-2.385,1.828-3.172,4.316-2.948,7.21c0.374,4.815,0.751,9.63,1.135,14.444
		c0.066,0.829,0.519,1.18,1.162,0.822c0.483-0.269,1.128-0.699,1.214-1.151c0.394-2.069,0.573-4.177,0.907-6.258
		c1.174-7.296,4.336-13.73,8.671-19.626c0.289-0.393,1.106-0.648,1.609-0.562c0.509,0.087,1.117,0.585,1.353,1.065
		c0.384,0.781,0.612,1.681,0.711,2.554c0.341,3,0.317,6.069,0.946,9.002c1.28,5.963-0.06,11.414-2.741,16.629
		c-1.654,3.216-3.693,6.231-5.44,9.403c-1.16,2.108-2.301,4.264-3.098,6.523c-0.812,2.303-0.896,4.751,0.235,7.063
		c0.098,0.199,0.421,0.334,0.666,0.403c0.277,0.077,0.69,0.175,0.86,0.037c0.452-0.367,0.972-0.791,1.172-1.306
		c1.811-4.655,5.059-8.201,8.781-11.347c6.455-5.458,12.967-10.848,19.485-16.231c0.423-0.349,1.112-0.57,1.651-0.527
		c0.492,0.039,1.29,0.457,1.354,0.816c0.151,0.841,0.131,1.812-0.154,2.612c-0.892,2.508-3.465,4.82-2.651,7.411
		c0.765,2.434,3.064,4.39,4.726,6.527c0.134,0.172,0.566,0.191,0.84,0.15c0.227-0.035,0.575-0.234,0.611-0.413
		c1.084-5.329,1.854-10.707,1.599-16.153c-0.234-4.997-2.999-8.298-7.429-10.424c-1.81-0.869-3.555-0.091-5.325-0.194
		c-1.697-0.099-3.082-1.253-3.157-2.619c-0.122-2.244,1.697-4.338,3.713-4.23c0.595,0.032,1.188,0.172,1.774,0.299
		c1.058,0.228,2.279,1.462,3.069-0.088c0.269-0.528-0.507-1.56-0.74-2.381c-0.243-0.856-0.663-1.771-0.543-2.593
		c0.176-1.205,0.932-2.162,2.281-2.475c1.242-0.288,2.74,0.293,2.915,1.427c0.751,4.852,3.002,9.085,5.362,13.27
		c0.15,0.266,1.344,0.346,1.425,0.188c2.074-4.016,3.988-8.099,4.83-12.596c0.16-0.853,0.398-1.822,0.941-2.434
		c0.527-0.593,1.521-1.162,2.262-1.105c2.809,0.216,4.563,3.425,2.724,5.098c-2.592,2.358-3.916,5.266-5.009,8.422
		c-1.575,4.546-3.205,9.073-4.779,13.62c-0.078,0.226,0.083,0.754,0.236,0.8c0.425,0.128,1.118,0.281,1.328,0.062
		c2.087-2.176,3.976-4.554,6.169-6.611c1.66-1.557,2.042-3.643,3.016-5.484c1.163-2.197,4.065-2.901,6.273-1.61
		c1.87,1.094,2.773,3.566,1.925,5.459c-0.368,0.822-0.869,1.589-1.348,2.356c-0.848,1.359-2.009,2.38-3.688,2.049
		c-2.383-0.469-4.203,0.354-5.532,2.193c-2.826,3.909-5.684,7.81-8.224,11.904c-0.897,1.446-0.929,3.438-1.292,5.193
		c-0.034,0.166,0.354,0.514,0.61,0.617c0.253,0.102,0.739,0.125,0.865-0.029c3.241-3.959,6.443-7.95,9.665-11.925
		c0.752-0.927,1.463-1.915,2.352-2.695c0.927-0.814,2.212-1.316,3.302-0.556c0.915,0.638,1.874,1.635,2.166,2.658
		c0.697,2.443-0.796,5.203-3.321,5.5c-2.648,0.312-4.447,1.308-5.964,3.417c-2.115,2.94-4.413,5.75-6.683,8.576
		c-2.585,3.218-3.919,6.694-2.976,10.919c0.524,2.347,0.593,4.793,0.976,7.177c0.063,0.391,0.656,0.75,1.077,1.002
		c0.154,0.092,0.615-0.086,0.773-0.276c3.084-3.729,5.816-7.675,7.671-12.19c0.449-1.092,1-2.326,1.882-3.003
		c0.847-0.65,2.205-0.958,3.3-0.878c1.287,0.094,1.999,1.312,2.242,2.525c0.385,1.92-0.21,4.077-1.705,4.863
		c-5.442,2.86-7.725,8.198-10.877,12.874c-0.674,1.001-1.319,2.031-1.871,3.103c-1.664,3.23-0.847,7.571,1.936,9.905
		c1.383,1.159,2.937,2.113,4.407,3.17c6.082,4.373,10.286,10.196,12.766,17.19c3.124,8.809,6.544,17.541,7.944,26.872
		c0.359,2.39,1.087,4.656,2.628,6.661c9.262,12.05,19.914,22.685,32.105,31.765c0.453,0.338,1.104,0.448,1.682,0.559
		c0.192,0.037,0.49-0.215,0.662-0.405c0.184-0.202,0.449-0.551,0.384-0.727c-1.553-4.202-2.911-8.275-7.186-11.011
		c-3.745-2.396-6.898-5.845-9.95-9.163c-3.532-3.841-5.64-8.564-6.63-13.697c-1.887-9.777-3.915-19.528-3.477-29.603
		c0.236-5.427-0.029-10.875,0.014-16.312c0.012-1.49,0.232-2.996,0.534-4.457c0.093-0.449,0.77-1.09,1.184-1.094
		c0.8-0.008,1.775,0.168,2.359,0.652c0.644,0.534,1.023,1.462,1.358,2.283c1.528,3.746,4.09,6.629,7.212,9.133
		c2.825,2.265,5.492,4.728,8.263,7.063c7.952,6.699,12.541,15.444,14.769,25.375c1.552,6.916,0.543,13.854-1.892,20.5
		c-1.244,3.395-2.705,6.721-4.25,9.992c-0.867,1.836-0.724,3.48,0.13,5.177c0.815,1.618,1.669,3.216,2.502,4.825
		c1.662,3.21,3.321,6.422,4.981,9.633c3.588,2.213,7.108,4.547,10.784,6.601c3.151,1.761,6.467,3.234,9.751,4.743
		c0.392,0.18,1.242-0.046,1.524-0.383c0.273-0.327,0.282-1.134,0.068-1.562c-0.808-1.619-1.847-3.126-2.63-4.756
		c-1.722-3.585-2.709-7.391-2.665-11.375c0.116-10.313,1.802-20.421,4.255-30.41c0.109-0.442,0.771-0.928,1.26-1.046
		c0.502-0.121,1.189,0.053,1.646,0.337c0.481,0.299,0.857,0.84,1.157,1.346c2.92,4.929,5.86,9.847,8.704,14.82
		c3.695,6.46,4.99,13.594,5.135,20.885c0.102,5.115-0.484,10.245-0.788,15.366c-0.117,1.973,0.85,3.485,2.871,3.893
		c2.359,0.476,4.769,0.69,7.144,1.097c0.879,0.151,1.787,0.407,2.55,0.844c0.407,0.233,0.76,0.97,0.727,1.45
		c-0.034,0.488-0.48,1.196-0.912,1.355c-0.802,0.296-1.744,0.433-2.595,0.341c-9.075-0.98-17.698-3.645-26.078-7.16
		C193.856,445.935,190.838,444.558,187.14,442.933z M82.495,361.901c0.125-0.275,0.423-0.613,0.349-0.815
		c-2.59-7.081-3.893-14.483-5.497-21.811c-1.039-4.745-1.186-9.552-1.108-14.377c0.016-0.966,1.797-2.041,2.746-1.604
		c1.898,0.875,3.782,1.792,5.608,2.805c2.892,1.604,5.727,3.31,8.603,4.943c0.232,0.132,0.735,0.166,0.868,0.021
		c0.361-0.392,0.87-0.932,0.829-1.366c-0.552-5.861-3.115-10.29-8.979-12.308c-1.419-0.489-2.774-1.176-4.207-1.612
		c-1.482-0.451-2.907-0.389-4.179,0.801c-0.633,0.593-1.515,0.979-2.349,1.286c-1.715,0.63-3.901-0.419-4.438-2.033
		c-0.707-2.125,0.613-4.618,2.594-4.98c3.335-0.609,6.576-0.252,9.793,0.75c0.302,0.094,0.839-0.414,1.184-0.732
		c0.075-0.069-0.195-0.531-0.326-0.802c-0.981-2.036-3.126-2.744-4.639-4.15c-0.738-0.686-1.026-2.146-1.03-3.257
		c-0.005-1.343,1.623-2.588,3.109-2.788c1.421-0.191,2.475,0.66,2.846,1.76c1.292,3.828,3.55,6.933,6.526,9.572
		c0.181,0.16,0.596,0.125,0.883,0.073c0.219-0.039,0.553-0.217,0.588-0.385c0.69-3.303,0.966-6.502-1.375-9.43
		c-2.068-2.587-3.899-5.362-5.871-8.026c-0.761-1.028-2.355-1.078-3.108-0.178c-2.316,2.767-4.341,5.86-7.007,8.233
		c-6.195,5.516-10.506,12.334-14.574,19.198C64.537,334.441,74.36,352.663,82.495,361.901z M95.982,373.66
		c-1.966-1.172-3.219-2.005-4.558-2.665c-0.41-0.202-1.054,0.072-1.591,0.128c0.158,0.489,0.192,1.075,0.491,1.452
		c6.567,8.282,14.322,15.345,22.637,21.809c5.933,4.613,12.268,8.627,18.992,11.991c1.587,0.794,3.327,1.311,5.04,1.81
		c0.477,0.139,1.246-0.1,1.612-0.449c0.207-0.197,0.036-1.108-0.253-1.461c-4.181-5.106-8.689-9.973-12.543-15.312
		c-3.092-4.283-6.953-7.368-11.404-9.946c-3.914-2.267-8.085-3.906-12.369-5.3C99.763,374.978,97.509,374.181,95.982,373.66z
		 M170.076,388.175c0-1.928,0.05-2.534-0.012-3.128c-0.092-0.895-0.214-1.792-0.406-2.67c-2.631-11.983-8.67-21.635-19.302-28.127
		c-0.241-0.147-0.793-0.256-0.842-0.172c-0.28,0.477-0.586,1.008-0.623,1.538c-0.04,0.574,0.114,1.207,0.342,1.747
		c4.087,9.718,6.863,19.857,9.699,29.98c1.459,5.206,2.996,10.39,4.563,15.565c0.137,0.453,0.721,1.007,1.16,1.069
		c0.465,0.066,1.246-0.261,1.476-0.656C169.091,398.236,169.614,392.539,170.076,388.175z M120.115,408.47
		c-5.115,1.134-10.406,2.276-15.681,3.487c-4.855,1.115-8.958,3.598-12.185,7.355c-2.353,2.739-4.466,5.688-6.607,8.602
		c-0.233,0.316-0.133,1.226,0.153,1.488c0.37,0.339,1.153,0.535,1.638,0.39c2.59-0.773,5.165-1.611,7.704-2.538
		c11.602-4.237,23.336-8.063,35.211-11.459c1.968-0.563,4.295-0.247,5.62-2.358c0.525-0.835-1.407-1.964-5.794-3.028
		C126.962,409.629,123.678,409.145,120.115,408.47z M82.265,335.878c-0.297,0.427-0.896,0.895-0.845,1.274
		c0.888,6.538,1.97,13.047,4.267,19.268c2.783,7.536,8.08,12.667,15.694,15.005c4.611,1.415,9.024,3.202,13.424,5.1
		c0.395,0.17,1.031-0.219,1.555-0.349c-0.08-0.279-0.082-0.621-0.251-0.827c-4.179-5.105-8.198-10.356-12.611-15.251
		c-7.038-7.807-14.531-15.213-20.388-24.021C82.993,335.903,82.555,335.941,82.265,335.878z M142.068,354.626
		c-1.254,11.241,1.432,22.099,3.334,33.013c0.619,3.554,2.288,6.876,4.524,9.73c2.513,3.208,5.004,6.546,8.921,8.405
		c0.798-1.832,0.268-3.253-0.143-4.694c-2.384-8.365-4.589-16.786-7.185-25.085c-2.058-6.58-4.554-13.025-6.954-19.493
		C144.203,355.53,143.619,354.334,142.068,354.626z M141.084,418.091c-1.486,0.096-2.387,0.017-3.213,0.23
		c-5.791,1.488-11.645,2.795-17.329,4.622c-8.54,2.745-16.962,5.858-25.417,8.864c-0.447,0.159-0.73,0.777-1.09,1.182
		c0.374,0.329,0.747,0.945,1.122,0.946c6.591,0.021,13.185,0.089,19.772-0.098C126.349,433.511,134.226,427.208,141.084,418.091z
		 M88.572,334.164c-0.241,0.179-0.58,0.312-0.691,0.551c-0.092,0.199,0.027,0.552,0.149,0.786c2.535,4.842,6.305,8.739,9.975,12.672
		c6.137,6.577,12.309,13.11,17.75,20.296c0.7,0.925,1.731,1.604,2.642,2.358c0.165,0.136,0.581,0.196,0.716,0.087
		c0.21-0.17,0.433-0.545,0.386-0.781c-1.058-5.286-2.853-10.338-5.066-15.236c-2.274-5.03-5.704-9.205-10.293-12.232
		c-4.491-2.963-9.21-5.583-13.861-8.299C89.825,334.102,89.146,334.222,88.572,334.164z M149.395,467.454
		c1.169,0.249,2.015,0.7,2.705,0.528c2.892-0.721,5.737-1.63,8.6-2.469c9.572-2.806,15.859-9.215,19.8-18.148
		c0.165-0.374-0.235-1.038-0.469-1.519c-0.054-0.111-0.536-0.104-0.775-0.021c-4.575,1.583-8.555,4.259-12.426,7.053
		c-2.899,2.092-5.564,4.511-8.307,6.815C155.569,462.172,152.645,464.687,149.395,467.454z M49.73,186.173
		c-2.691,3.192-2.365,7.024-3.256,10.461c-1.946,7.509-1.325,14.934,1.111,22.235c0.124,0.371,0.895,0.779,1.318,0.734
		c0.505-0.054,1.246-0.481,1.392-0.913c1.342-3.991,2.887-7.95,3.775-12.048C55.657,199.326,54.287,192.487,49.73,186.173z
		 M173.119,443.34c-3.318-1.347-5.709,0.443-8.147,1.258c-9.314,3.113-15.944,9.336-20.206,18.131
		c-0.088,0.181,0.045,0.683,0.156,0.71c0.516,0.129,1.228,0.391,1.567,0.16c2.727-1.853,5.691-3.5,8-5.795
		c4.736-4.705,10.026-8.58,15.701-12.012C171.163,445.204,171.959,444.324,173.119,443.34z M210.32,432.88
		c-0.508-6.684-1.231-13.787-4.401-20.368c-0.327-0.678-1.243-1.397-1.962-1.486c-1.117-0.138-1.14,1.045-1.154,1.827
		c-0.156,8.48,2.398,16.425,4.915,24.371c0.063,0.2,0.506,0.468,0.67,0.411c0.472-0.165,1.18-0.399,1.278-0.75
		C209.984,435.752,210.07,434.552,210.32,432.88z M12.054,286.749c-0.124,0.241-0.413,0.544-0.349,0.715
		c1.965,5.268,5.556,9.195,10.229,12.184c2.268,1.451,4.586,2.849,7.361,3.107c0.246,0.023,0.569-0.212,0.764-0.415
		c0.149-0.155,0.263-0.487,0.201-0.679c-0.762-2.374-2.432-4.12-4.183-5.766c-3.965-3.726-8.555-6.577-13.263-9.246
		C12.637,286.549,12.311,286.71,12.054,286.749z M24.143,250.696c-0.179,0.516-0.645,1.143-0.495,1.533
		c2.85,7.393,8.641,12.015,15.189,15.891c0.083,0.049,0.459-0.268,0.6-0.48c0.144-0.216,0.308-0.574,0.224-0.766
		c-2.973-6.78-7.64-12.118-13.882-16.068C25.375,250.549,24.697,250.722,24.143,250.696z M196.994,414.384
		c-0.241,0.458-0.624,0.885-0.681,1.352c-0.219,1.796-0.341,3.604-0.484,5.409c-0.473,5.959,1.195,11.326,4.523,16.224
		c0.335,0.493,0.746,0.947,1.18,1.357c0.204,0.193,0.759,0.38,0.795,0.327c0.298-0.443,0.798-1.003,0.71-1.417
		c-1.556-7.356-3.171-14.701-4.841-22.032C198.09,415.142,197.428,414.807,196.994,414.384z M54.768,249.681
		c0.296-0.018,0.655,0.067,0.88-0.068c5.566-3.349,9.298-8.192,11.363-14.301c0.233-0.689-0.278-1.63-0.444-2.454
		c-0.552,0.114-1.219,0.068-1.64,0.367c-4.452,3.174-7.777,7.3-9.961,12.299c-0.455,1.043-0.496,2.276-0.654,3.431
		C54.283,249.172,54.607,249.438,54.768,249.681z M60.882,309.851c0.724-0.265,1.439-0.297,1.718-0.663
		c3.115-4.089,6.599-7.812,10.361-11.322c1.724-1.608,2.954-3.761,4.304-5.738c0.166-0.243-0.267-0.95-0.522-1.383
		c-0.057-0.096-0.596-0.033-0.813,0.109c-4.052,2.646-7.717,5.749-10.941,9.364C62.56,302.942,61.02,306.027,60.882,309.851z
		 M54.418,287.742c4.177-3.88,5.635-7.516,6.895-11.163c1.294-3.746,1.153-7.644,0.025-11.465c-0.048-0.163-0.379-0.329-0.584-0.337
		c-0.285-0.011-0.741,0.037-0.837,0.215c-0.702,1.296-1.639,2.566-1.932,3.964C56.771,274.743,55.759,280.572,54.418,287.742z
		 M53.374,361.886c2.694,2.022,5.443,2.893,8.499,3.01c3.305,0.126,6.628,0.443,9.758-0.98c0.496-0.226,1.026-0.78,1.174-1.289
		c0.351-1.21-0.752-1.259-1.496-1.488C65.365,359.302,59.505,359.574,53.374,361.886z M56.901,341.018
		c1.281,0,1.591,0.053,1.874-0.01c0.736-0.165,1.99,0.024,1.682-1.177c-0.176-0.69-1.112-1.544-1.82-1.668
		c-1.729-0.303-3.525-0.282-5.292-0.247c-0.308,0.006-0.895,0.772-0.836,1.091c0.093,0.504,0.543,1.209,0.983,1.334
		C54.913,340.747,56.398,340.927,56.901,341.018z M91.942,390.454c1.292-0.16,2.444-0.244,3.563-0.484
		c0.264-0.057,0.461-0.623,0.582-0.99c0.025-0.076-0.418-0.445-0.648-0.447c-1.997-0.019-3.997-0.018-5.991,0.081
		c-0.209,0.01-0.449,0.676-0.538,1.068c-0.027,0.12,0.379,0.458,0.621,0.499C90.374,390.323,91.231,390.38,91.942,390.454z" fill="#4b644a" stroke="#4b644a"/>
	<path d="M406.857,125.993c0.127,0.672,0.06,1.372,0.37,1.798c3.556,4.884,7.141,9.747,10.785,14.565
		c0.992,1.312,2.439,1.696,4.041,1.197c1.152-0.359,2.264-0.879,3.435-1.142c5.719-1.281,11.364-1.217,16.908,0.957
		c7.673,3.009,14.268,7.792,20.847,12.597c0.397,0.29,0.504,1.028,0.654,1.583c0.072,0.267,0.034,0.726-0.139,0.864
		c-0.441,0.351-1.022,0.842-1.482,0.781c-0.847-0.112-1.685-0.507-2.461-0.91c-5.19-2.696-10.692-4.02-16.544-3.865
		c-3.019,0.08-6.072,0.471-9.052,0.167c-9.724-0.993-8.967-0.091-4.669,8.147c0.419,0.802,0.745,1.665,1.249,2.408
		c0.68,1.003,1.53,2.072,2.922,1.531c3.965-1.54,7.835-0.322,11.581,0.586c5.925,1.435,11.225,4.355,15.915,8.284
		c0.387,0.324,0.481,1.029,0.647,1.576c0.189,0.628-1.118,1.671-1.956,1.416c-7.108-2.169-14.434-0.505-21.619-1.277
		c-0.892-0.096-1.651,0.891-1.501,1.767c0.314,1.839,0.961,3.433,2.586,4.576c6.729,4.73,12.325,10.652,17.676,16.841
		c2.372,2.744,4.789,5.563,8.995,5.208c7.465,2.456,13.368,6.939,17.435,13.686c3.145,5.218,5.141,10.915,6.407,16.853
		c0.24,1.126,0.056,2.384-0.15,3.542c-0.071,0.399-0.772,0.731-1.241,0.995c-0.221,0.124-0.668,0.131-0.85-0.014
		c-0.696-0.553-1.472-1.091-1.957-1.811c-3.252-4.825-7.301-8.854-12.055-12.17c-6.314-4.404-11.148-9.99-14.857-16.792
		c-3.938-7.223-9.693-13.055-16.016-18.29c-0.213-0.176-0.765-0.318-0.831-0.23c-0.298,0.397-0.534,0.866-0.679,1.344
		c-0.08,0.262,0.032,0.601,0.112,0.89c4.356,15.721,5.478,24.062,7.136,41.233c0.493,0.461,1.032,1.269,1.784,1.622
		c6.448,3.026,11.364,7.938,16.062,13.075c1.611,1.762,2.972,3.816,4.144,5.907c4.184,7.461,6.42,15.606,7.966,23.953
		c0.143,0.77-0.325,1.753-0.766,2.482c-0.185,0.306-1.24,0.472-1.547,0.239c-0.687-0.523-1.397-1.253-1.671-2.046
		c-2.159-6.231-6.324-10.956-11.3-15.013c-4.742-3.866-8.77-8.278-11.776-13.633c-0.342-0.61-1.404-1.187-2.095-1.147
		c-1.105,0.065-1.013,1.272-1.042,2.098c-0.31,9.087-1.416,18.067-3.555,26.908c-0.735,3.04-0.361,5.861,0.689,8.844
		c2.021,5.737,2.839,11.731,2.389,17.841c-0.133,1.803-0.138,3.662-0.61,5.384c-2.151,7.861-4.388,15.7-6.748,23.501
		c-0.409,1.353-1.49,2.541-2.421,3.673c-0.256,0.311-1.098,0.195-1.666,0.167c-0.207-0.01-0.439-0.306-0.586-0.522
		c-0.167-0.244-0.361-0.547-0.355-0.82c0.124-5.552-1.393-10.744-3.428-15.825c-2.588-6.463-2.483-12.945-0.313-19.508
		c1.709-5.172,3.447-10.352,6.306-14.994c2.645-4.296,2.801-9.208,4.027-13.847c0.598-2.261,1.215-4.674,0.004-7.283
		c-0.689,0.653-1.494,1.122-1.873,1.822c-3.574,6.585-9.092,11.248-15.19,15.274c-3.258,2.151-6.738,3.971-10.172,5.842
		c-0.387,0.211-1.125-0.2-1.694-0.349c-0.795-0.208-1.052-1.494-0.382-2.276c3.192-3.724,5.194-8.105,7.151-12.536
		c3.017-6.834,7.726-12.133,14.236-15.947c3.098-1.815,5.903-4.171,8.672-6.484c0.826-0.689,1.525-2.063,1.523-3.122
		c-0.009-6.028-0.243-12.056-0.43-18.083c-0.004-0.12-0.377-0.341-0.552-0.318c-0.264,0.035-0.648,0.184-0.732,0.388
		c-0.573,1.379-1.423,2.753-1.554,4.187c-0.779,8.477-4.972,15.424-9.714,22.123c-0.397,0.561-1.643,0.967-2.3,0.775
		c-0.664-0.193-1.473-1.177-1.549-1.887c-0.419-3.901-0.603-7.826-0.925-11.739c-0.409-4.984,0.722-9.63,3.179-13.922
		c1.647-2.877,3.578-5.59,5.327-8.41c1.59-2.562,3.214-5.113,4.625-7.774c1.324-2.494,1.565-5.179,0.511-7.88
		c-0.095-0.245-0.355-0.621-0.514-0.609c-0.561,0.041-1.463,0.058-1.614,0.378c-3.092,6.54-8.459,10.849-14.19,14.878
		c-5.678,3.992-11.232,8.16-16.853,12.234c-0.775,0.562-2.215,0.3-2.358-0.379c-0.119-0.568-0.337-1.202-0.193-1.718
		c0.238-0.855,0.699-1.655,1.123-2.448c0.851-1.592,1.741-3.164,2.765-5.016c-0.924-2.84-2.835-5.124-4.706-7.424
		c-0.157-0.192-0.59-0.381-0.762-0.298c-0.486,0.235-1.238,0.562-1.296,0.943c-0.733,4.772-1.538,9.545-1.933,14.35
		c-0.167,2.033,0.417,4.19,0.991,6.195c0.304,1.062,1.174,2.09,2.043,2.838c2.512,2.164,5.1,4.265,8.839,3.385
		c0.516-0.121,1.156,0.261,1.734,0.426c1.026,0.293,1.816,1.812,1.527,2.92c-0.599,2.3-2.622,3.71-4.657,3.117
		c-1.446-0.422-2.829-1.058-4.261-1.536c-0.152-0.051-0.525,0.282-0.652,0.515c-0.125,0.229-0.18,0.615-0.069,0.832
		c0.544,1.061,1.321,2.034,1.68,3.147c0.242,0.751,0.14,1.777-0.188,2.51c-0.526,1.177-1.669,1.795-2.964,1.595
		c-1.226-0.189-2.338-0.849-2.401-2.258c-0.207-4.644-2.131-8.741-3.966-12.871c-0.114-0.256-0.42-0.427-0.831-0.825
		c-0.524,0.54-1.256,1.001-1.564,1.66c-2.035,4.348-4.645,8.458-5.536,13.292c-0.154,0.838-2.194,1.474-3.155,1.133
		c-2.758-0.978-3.482-3.488-1.621-5.571c1.19-1.331,2.712-2.513,3.464-4.063c2.499-5.155,4.738-10.438,7.006-15.702
		c0.199-0.461,0.092-1.337-0.232-1.684c-0.816-0.873-1.454,0.027-2.084,0.493c-0.24,0.178-0.45,0.405-0.646,0.632
		c-2.911,3.372-6.896,5.778-8.499,10.349c-0.68,1.938-3.625,2.195-5.579,1.035c-2.016-1.196-2.989-3.462-2.115-5.367
		c1.163-2.535,2.534-4.917,6-4.344c1.579,0.261,3.022-0.104,4.181-1.213c4.396-4.208,8.076-8.98,10.893-14.374
		c0.369-0.706,0.107-1.762,0.063-2.652c-0.013-0.27-0.217-0.617-0.441-0.763c-0.166-0.108-0.587-0.039-0.758,0.108
		c-1.129,0.977-2.325,1.906-3.306,3.02c-2.595,2.948-5.069,6.002-7.645,8.967c-0.576,0.663-1.342,1.177-2.075,1.682
		c-1.062,0.732-3.11,0.447-4.208-0.58c-0.939-0.879-1.332-2.002-1.057-3.266c0.497-2.282,1.967-4.17,4.193-4.099
		c2.448,0.078,3.94-0.739,5.395-2.47c2.721-3.238,5.58-6.36,8.376-9.534c2.315-2.628,3.278-5.675,3.053-9.183
		c-0.192-2.987-0.124-5.999-1.809-9.166c-3.933,3.481-6.589,7.419-8.923,11.63c-0.719,1.297-1.518,2.595-2.509,3.684
		c-0.861,0.947-2.214,1.118-3.324,0.468c-0.702-0.411-1.363-1.221-1.624-1.994c-0.774-2.292,0.205-4.202,1.949-5.593
		c1.368-1.09,3.409-1.516,4.448-2.804c3.219-3.991,6.197-8.187,9.08-12.432c1.803-2.655,1.325-6.957-0.877-9.257
		c-1.244-1.299-2.739-2.361-4.147-3.497c-6.321-5.101-10.476-11.61-12.676-19.404c-2.542-9.008-5.261-17.978-6.221-27.341
		c-0.189-1.839-0.623-3.5-1.665-5.078c-9.226-13.982-20.435-26.12-33.535-36.774c-0.292,0.901-0.732,1.521-0.591,1.951
		c0.563,1.711,1.357,3.345,1.974,5.041c1.047,2.879,2.661,5.15,5.154,7.145c3.272,2.618,6.167,5.781,8.892,8.991
		c3.799,4.475,5.808,9.868,6.744,15.621c2.644,16.249,1.955,32.516,0.079,48.777c-0.067,0.576-0.266,1.407-0.666,1.614
		c-0.704,0.366-1.632,0.512-2.425,0.416c-0.463-0.056-1.086-0.69-1.23-1.183c-1.589-5.446-5.067-9.526-9.23-13.165
		c-1.818-1.589-3.448-3.39-5.253-4.995c-4.844-4.309-8.146-9.626-10.72-15.527c-4.747-10.885-4.624-21.699,0.134-32.49
		c1.698-3.85,3.631-7.596,5.601-11.687c-1.189-2.865-2.411-5.94-3.732-8.972c-4.531-10.399-1.855-7.644-12.487-14.578
		c-3.777-2.464-7.846-4.481-11.794-6.679c-0.238-0.132-0.774-0.185-0.851-0.066c-0.278,0.425-0.684,1.028-0.561,1.406
		c0.371,1.139,0.926,2.227,1.485,3.295c2.904,5.552,3.704,11.464,2.894,17.6c-1.148,8.697-3.101,17.232-5.464,25.673
		c-0.154,0.55-0.522,1.185-0.982,1.462c-0.435,0.262-1.278,0.339-1.665,0.081c-0.715-0.477-1.399-1.167-1.798-1.925
		c-2.528-4.804-4.94-9.669-7.463-14.476c-1.418-2.703-2.274-5.535-2.897-8.529c-1.558-7.491-2.005-14.939-0.399-22.482
		c0.5-2.347,0.646-4.783,0.775-7.188c0.067-1.265-0.584-2.292-1.969-2.632c-3.219-0.789-6.446-1.551-9.643-2.421
		c-0.484-0.132-1.015-0.718-1.18-1.209c-0.145-0.429,0.047-1.338,0.35-1.479c0.769-0.359,1.684-0.559,2.539-0.553
		c4.303,0.028,8.284,1.567,12.297,2.853c6.337,2.031,12.376,4.785,18.245,7.92c1.326,0.708,2.671,1.474,4.103,1.845
		c0.639,0.166,1.864-0.365,2.221-0.948c1.415-2.311,2.462-4.847,3.88-7.155c4.776-7.775,11.358-13.168,20.372-15.46
		c5.56-1.413,11.074-2.918,16.82-3.468c3.898-0.373,7.75-1.205,11.641-1.668c1.464-0.174,2.984,0.097,4.476,0.204
		c0.695,0.05,1.352,1.641,0.895,2.162c-0.781,0.891-1.501,1.875-2.421,2.599c-4.313,3.395-8.105,7.314-11.095,11.88
		c-6.746,10.303-16.503,15.59-28.332,17.67c-1.463,0.257-2.906,0.716-4.293,1.251c-0.305,0.118-0.399,0.95-0.454,1.468
		c-0.025,0.235,0.229,0.568,0.446,0.75c6.934,5.832,13.874,11.658,20.828,17.467c1.55,1.295,3.38,1.353,4.954,0.055
		c2.794-2.306,5.61-4.601,8.248-7.08c6.947-6.531,15.322-9.445,24.66-9.944c2.711-0.145,5.445-0.111,8.156,0.049
		c7.84,0.464,15.682,0.943,23.508,1.604c3.591,0.303,7.152,1.009,10.708,1.637c0.397,0.07,0.872,0.796,0.951,1.277
		c0.085,0.512-0.086,1.287-0.447,1.609c-0.889,0.793-1.916,1.453-2.951,2.058c-3.439,2.014-6.261,4.701-8.791,7.75
		c-1.735,2.091-3.527,4.145-5.413,6.1c-4.293,4.451-9.233,7.655-15.573,8.528c-4.473,0.616-8.882,1.701-13.304,2.652
		c-0.509,0.11-1.171,0.638-1.291,1.095c-0.111,0.423,0.279,1.161,0.672,1.506c3.403,2.991,6.898,5.878,10.276,8.895
		c1.495,1.335,2.995,1.774,4.944,1.181c9.292-2.824,17.851-0.297,26.179,3.73c0.257,0.124,0.544,0.38,0.625,0.636
		c0.173,0.54,0.403,1.17,0.266,1.669c-0.14,0.508-0.614,1.044-1.087,1.306c-0.489,0.27-1.16,0.339-1.738,0.3
		C417.743,122.887,412.29,124.361,406.857,125.993z M416.13,148.171c-0.234,0.586-0.503,0.913-0.436,1.14
		c2.065,6.962,3.126,14.126,3.92,21.303c0.527,4.765,0.413,9.603,0.512,14.41c0.021,1.019-1.845,2.007-2.803,1.599
		c-0.824-0.351-1.702-0.635-2.434-1.13c-2.75-1.857-5.412-3.845-8.187-5.663c-1.233-0.808-2.63-1.398-4.016-1.916
		c-0.276-0.103-1.15,0.51-1.225,0.895c-0.493,2.528,0.771,4.743,1.702,6.909c0.682,1.589,1.857,3.234,3.265,4.184
		c2.476,1.671,5.272,2.886,7.988,4.178c1.154,0.549,2.336,0.208,3.41-0.499c0.75-0.493,1.51-1.064,2.35-1.308
		c1.504-0.436,2.975-0.241,4.152,0.963c0.927,0.949,1.196,2.103,0.735,3.307c-0.563,1.471-1.54,2.58-3.247,2.757
		c-2.749,0.284-5.388-0.149-8.016-0.998c-0.663-0.214-1.573,0.337-2.37,0.536c0.376,0.796,0.587,1.752,1.166,2.354
		c1.035,1.076,2.359,1.869,3.439,2.909c1.285,1.238,0.925,3.578-0.617,4.742c-1.937,1.463-4.43,0.927-4.997-1.443
		c-0.962-4.016-3.481-6.936-6.055-9.881c-0.147-0.168-0.581-0.16-0.861-0.113c-0.217,0.037-0.544,0.235-0.579,0.411
		c-0.726,3.601-1.049,7.084,1.387,10.348c1.98,2.653,3.615,5.562,5.43,8.341c0.545,0.835,1.589,0.931,2.232,0.262
		c2.71-2.823,5.167-5.954,8.175-8.411c5.458-4.458,9.663-9.91,13.788-15.513c1.64-2.227,1.73-4.379,0.895-6.795
		c-4.249-12.304-9.599-24.1-16.364-35.232C417.893,149.868,416.983,149.12,416.13,148.171z M409.327,137.962
		c-0.232-0.54-0.372-1.148-0.71-1.61c-5.734-7.827-12.29-14.921-19.523-21.366c-6.098-5.434-12.618-10.343-19.73-14.386
		c-2.061-1.172-4.419-1.826-6.659-2.669c-0.189-0.071-0.598,0.171-0.757,0.38c-0.138,0.181-0.189,0.612-0.067,0.779
		c4.259,5.842,8.797,11.499,12.732,17.55c2.556,3.93,5.656,7.098,9.557,9.444c3.864,2.324,7.841,4.568,12.01,6.247
		c3.947,1.59,7.772,3.249,11.189,5.799c0.404,0.301,0.981,0.407,1.496,0.494C408.978,138.642,409.17,138.195,409.327,137.962z
		 M336.875,100.388c-0.84,0.393-1.609,0.495-1.87,0.913c-4.867,7.807-6.347,16.36-4.19,25.185
		c2.031,8.308,5.866,15.844,12.592,21.554c1.61,1.366,3.131,2.84,4.768,4.171c0.266,0.216,0.925-0.051,1.763-0.128
		c-1.268-4.425-2.538-8.71-3.72-13.019c-1.117-4.073-2.222-8.152-3.186-12.262c-1.033-4.403-1.828-8.862-2.851-13.268
		C339.164,109.155,337.994,104.81,336.875,100.388z M364.923,93.573c5.769,3.49,11.752,4.956,18.253,4.928
		c5.811-0.025,11.327-1.582,16.9-2.787c3.256-0.705,6.173-2.556,8.518-4.939c2.741-2.784,5.213-5.835,7.724-8.836
		c0.255-0.305,0.045-1.074-0.09-1.59c-0.049-0.187-0.502-0.35-0.785-0.377c-0.593-0.055-1.233-0.146-1.788,0.01
		c-15.354,4.32-30.675,8.763-46.307,12.018C366.554,92.166,365.884,92.931,364.923,93.573z M392.125,135.082
		c-2.547-1.272-4.684-2.387-6.871-3.393c-0.445-0.205-1.185-0.174-1.582,0.077c-0.224,0.142-0.232,1.098,0.011,1.439
		c5.425,7.601,10.873,15.173,16.927,22.315c4.078,4.811,7.551,10.131,11.353,15.18c0.856,1.137,1.238,3.642,2.675,3.122
		c1.994-0.721,0.887-3.105,0.702-4.721c-0.446-3.889-1.034-7.77-1.77-11.616c-1.962-10.251-7.444-17.616-17.61-21.033
		C394.538,135.974,393.133,135.443,392.125,135.082z M341.785,99.038c0.502,6.981,6.77,35.273,9.99,44.944
		c0.802,2.409,1.276,5.022,3.044,7.264c0.501-0.873,0.957-1.349,1.057-1.89c2.043-11.136-0.05-22.054-1.82-32.984
		c-0.143-0.881-0.408-1.761-0.744-2.589C350.905,107.863,347.417,102.796,341.785,99.038z M411.247,75.927
		c-0.122-0.455-0.243-0.91-0.365-1.365c-8.419-0.132-16.838-0.257-25.257-0.398c-5.314-0.089-10.072,1.734-14.474,4.461
		c-3.574,2.214-6.682,5.047-9.276,8.39c-0.152,0.196-0.058,0.582-0.104,1.261c2.409-0.298,4.771-0.462,7.082-0.899
		c12.712-2.404,25.119-6.03,37.547-9.559C408.059,77.347,409.633,76.565,411.247,75.927z M379.842,136.31
		c-0.229,0.484-0.746,1.043-0.643,1.44c1.214,4.644,2.303,9.339,3.861,13.871c1.889,5.495,5.048,10.32,9.75,13.818
		c4.572,3.401,9.41,6.446,14.163,9.6c0.426,0.283,1.085,0.231,1.64,0.299c0.758,0.093,0.857-1.075-0.002-2.271
		c-3.504-4.878-6.867-9.877-10.659-14.523c-4.756-5.827-9.62-11.551-13.803-17.821c-0.992-1.487-2.271-2.785-3.457-4.135
		C380.523,136.394,380.132,136.398,379.842,136.31z M441.852,291.533c-0.611,0.224-1.415,0.26-1.659,0.648
		c-3.555,5.651-5.531,11.94-6.098,18.489c-0.438,5.065,1.578,9.798,3.923,14.676c0.854-1.031,1.695-1.616,1.915-2.379
		c1.731-6.008,3.819-11.95,3.951-18.302C443.978,300.172,443.647,295.742,441.852,291.533z M350.821,38.088
		c-1.579,0.394-4.164,1.131-6.789,1.678c-9.129,1.904-15.564,7.333-20.093,15.255c-0.403,0.704-0.523,1.608-0.62,2.437
		c-0.088,0.749,1.81,0.972,3.232,0.184c4.71-2.609,9.527-5.066,14.014-8.022c4.484-2.954,8.632-6.423,12.88-9.726
		c0.266-0.206,0.197-0.944,0.135-1.415c-0.021-0.161-0.485-0.314-0.768-0.378C352.527,38.038,352.215,38.088,350.821,38.088z
		 M331.974,62.085c1.872-0.508,4.164-1.137,6.461-1.75c9.511-2.539,16.451-8.319,21.208-16.838c0.092-0.165,0.004-0.632-0.104-0.672
		c-0.52-0.189-1.254-0.568-1.593-0.36c-3.057,1.877-6.103,3.783-9.041,5.84c-3.185,2.23-6.164,4.76-9.394,6.917
		c-2.735,1.826-5.715,3.282-8.541,4.979c-0.272,0.163-0.277,0.867-0.276,1.32C330.695,61.635,331.191,61.75,331.974,62.085z
		 M295.131,63.062c-0.949,1.256-1.469,1.663-1.615,2.177c-2.488,8.742-0.334,17.083,2.289,25.37
		c0.171,0.541,0.557,1.082,0.989,1.452c0.412,0.353,1.044,0.695,1.526,0.632c0.307-0.04,0.754-0.84,0.732-1.278
		c-0.214-4.157-0.27-8.345-0.855-12.455C297.486,73.969,296.308,69.043,295.131,63.062z M465.694,210.236
		c-0.243,0.175-0.662,0.323-0.694,0.53c-0.083,0.536-0.191,1.214,0.055,1.633c3.762,6.399,9.617,10.486,15.828,14.158
		c0.118,0.07,0.489-0.162,0.656-0.335c0.185-0.192,0.439-0.544,0.374-0.716c-2.802-7.388-7.778-12.603-15.328-15.207
		C466.313,210.205,465.992,210.254,465.694,210.236z M423.693,278.783c5.235-3.039,9.542-7.024,12.424-12.402
		c0.688-1.285,1.054-2.747,1.508-4.147c0.051-0.157-0.243-0.51-0.457-0.645c-0.224-0.14-0.606-0.255-0.814-0.158
		c-6.777,3.169-11.725,9.402-13.189,16.623C423.127,278.24,423.484,278.507,423.693,278.783z M299.132,62.31
		c1.261,5.549,2.145,10.196,2.949,14.87c0.833,4.84,0.936,9.806,1.433,15.583C308.005,77.018,307.026,69.507,299.132,62.31z
		 M468.769,264.032c0.178-0.777,0.551-1.413,0.393-1.862c-2.782-7.886-8.299-13.568-14.945-18.311
		c-0.189-0.135-0.764-0.104-0.807-0.001c-0.203,0.48-0.534,1.117-0.37,1.511C456.299,253.213,461.503,259.418,468.769,264.032z
		 M439.15,223.12c-4.042,4.373-6.787,8.842-8.05,14.195c-0.636,2.697-0.566,5.352,0.353,7.967c0.085,0.242,0.42,0.446,0.685,0.559
		c0.185,0.079,0.583,0.057,0.658-0.063c0.784-1.254,1.839-2.451,2.215-3.828c1.497-5.486,2.788-11.028,4.122-16.558
		C439.258,224.875,439.15,224.302,439.15,223.12z M434.188,202.713c-0.071-0.438-0.157-0.975-0.243-1.511
		c-0.509,0.184-1.19,0.217-1.502,0.574c-3.344,3.822-7.008,7.29-10.878,10.585c-2.01,1.711-3.551,3.976-5.275,6.016
		c-0.167,0.198-0.216,0.808-0.171,0.824c0.509,0.188,1.26,0.59,1.544,0.383c3.844-2.798,7.713-5.575,11.392-8.583
		C431.63,208.894,433.474,206.163,434.188,202.713z M425.088,148.061c6.193,3.686,12.707,2.997,19.223,2.216
		c0.093-0.011,0.204-0.434,0.187-0.656c-0.02-0.273-0.083-0.673-0.269-0.786c-5.325-3.24-10.967-4.58-17.06-2.558
		C426.408,146.529,425.848,147.389,425.088,148.061z M408.89,118.207c-1.209,0.078-2.112,0.053-2.973,0.229
		c-0.417,0.085-0.756,0.549-1.13,0.841c0.406,0.372,0.752,0.881,1.229,1.091c1.715,0.752,3.439,0.834,5.025-0.368
		c0.201-0.153,0.349-0.465,0.382-0.721c0.026-0.2-0.126-0.583-0.266-0.618C410.31,118.447,409.444,118.311,408.89,118.207z
		 M436.288,171.511c2.309,1.655,4.761,2.035,7.397,1.283c0.24-0.069,0.604-0.412,0.578-0.573c-0.073-0.437-0.278-1.181-0.512-1.213
		C441.27,170.67,438.701,169.48,436.288,171.511z" fill="#4b644a" stroke="#4b644a"/>
</g>
<g>
</g>
<g>
</g>
<g>
</g>
<g>
</g>
<g>
</g>
<g>
</g>
<g>
</g>
<g>
</g>
<g>
</g>
<g>
</g>
<g>
</g>
<g>
</g>
<g>
</g>
<g>
</g>
<g>
</g>
</svg>
